# xmcd
#
# Track frame offsets: 
#        150
#        33985
#        53401
#        80051
#        107058
#        125379
#        137866
#        164681
#        188862
#        207402
#        242901
#
# Disc length: 3550 seconds
#
# Revision: 0
# Processed by: cddbd v1.5.1PL0 Copyright (c) Steve Scherf et al.
# Submitted via: ExactAudioCopy v0.95a5
#
DISCID=9c0ddc0b
DTITLE=Hot Tuna - 1988-12-30 Fillmore San Francisco, CA
DYEAR=1988
DGENRE=Blues
TTITLE0=Keep On Truckin' 
TTITLE1=Too Hot To Handle 
TTITLE2=Water Song
TTITLE3=Hesitation Blues 
TTITLE4=Walkin' Blues 
TTITLE5=Let Us Get Together Right Down Here 
TTITLE6=Candy Man 
TTITLE7=99 Year Blues 
TTITLE8=I Am The Light Of This World 
TTITLE9=Ice Age 
TTITLE10=Broken Highway
EXTD=
EXTT0=
EXTT1=
EXTT2=
EXTT3=
EXTT4=
EXTT5=
EXTT6=
EXTT7=
EXTT8=
EXTT9=
EXTT10=
PLAYORDER=
